<?xml version="1.0" encoding="UTF-8"?>
<!DOCTYPE svg PUBLIC "-//W3C//DTD SVG 1.1//EN" "http://www.w3.org/Graphics/SVG/1.1/DTD/svg11.dtd">
<svg xmlns="http://www.w3.org/2000/svg" xmlns:xlink="http://www.w3.org/1999/xlink" version="1.1" width="64" height="42.6667">
<polygon points="21.3333,0 0,21.3333 21.3333,42.6667 21.3333,21.3333 16.305,21.3333 16.305,30.5272 7.1111,21.3333 20.4679,7.9765 42.6667,42.6667 64,21.3333 42.6667,0 42.6667,21.3333 47.695,21.3333 47.695,12.1394 56.8889,21.3333 43.5321,34.6901"
fill="orange" />
<!-- path d="M4,11V13H16L10.5,18.5L11.92,19.92L19.84,12L11.92,4.08L10.5,5.5L16,11H4Z" -->
<!-- polygon points="21.3333,0 0,21.3333 21.3333,42.6667 21.3333,21.3333 16.305,21.3333 16.305,30.5272 7.1111,21.3333 20.4679,7.9765 42.6667,42.6667 64,21.3333 42.6667,0 42.6667,21.3333 47.695,21.3333 47.695,12.1394 56.8889,21.3333 43.5321,34.6901" -->
</svg>